<svg width="32" height="26" viewBox="0 0 32 26" fill="none" xmlns="http://www.w3.org/2000/svg">
<rect width="32" height="26" rx="6" fill="url(#paint0_linear)"/>
<path d="M23.799 10.6223L16.2295 5.08014C16.0836 4.97329 15.8853 4.97329 15.7394 5.08014L8.16984 10.6223C7.98495 10.7577 7.94478 11.0174 8.08017 11.2022C8.21557 11.3871 8.47521 11.4272 8.66007 11.2919L15.9844 5.92914L23.3088 11.2919C23.3826 11.346 23.4685 11.372 23.5535 11.372C23.6813 11.372 23.8074 11.3132 23.8886 11.2022C24.0241 11.0174 23.9839 10.7577 23.799 10.6223Z" fill="white"/>
<path d="M21.7933 11.3859C21.5642 11.3859 21.3784 11.5716 21.3784 11.8008V18.405H18.0592V14.8C18.0592 13.656 17.1284 12.7253 15.9845 12.7253C14.8405 12.7253 13.9098 13.6561 13.9098 14.8V18.4051H10.5905V11.8008C10.5905 11.5717 10.4047 11.3859 10.1756 11.3859C9.94651 11.3859 9.76071 11.5717 9.76071 11.8008V18.82C9.76071 19.0491 9.94651 19.2349 10.1756 19.2349H14.3247C14.5429 19.2349 14.7214 19.0663 14.738 18.8523C14.739 18.8426 14.7396 18.832 14.7396 18.82V14.8C14.7396 14.1136 15.298 13.5552 15.9845 13.5552C16.6709 13.5552 17.2293 14.1136 17.2293 14.8V18.82C17.2293 18.8319 17.23 18.8424 17.231 18.8519C17.2473 19.0661 17.4259 19.2349 17.6443 19.2349H21.7933C22.0225 19.2349 22.2082 19.0491 22.2082 18.82V11.8008C22.2082 11.5716 22.0224 11.3859 21.7933 11.3859Z" fill="white"/>
<defs>
<linearGradient id="paint0_linear" x1="16" y1="39" x2="41.4494" y2="7.67765" gradientUnits="userSpaceOnUse">
<stop stop-color="#66ECF5"/>
<stop offset="1" stop-color="#3694E7"/>
</linearGradient>
</defs>
</svg>
